<svg width="473" height="127" viewBox="0 0 473 127" fill="none" xmlns="http://www.w3.org/2000/svg">
<path d="M63.5 127C98.5701 127 127 98.5701 127 63.5C127 28.4299 98.5701 0 63.5 0C28.4299 0 0 28.4299 0 63.5C0 98.5701 28.4299 127 63.5 127Z" fill="#ccc"/>
<path d="M55.952 107.152C50.832 107.152 46.256 105.936 42.224 103.504C38.192 101.072 34.992 97.776 32.624 93.616C30.32 89.456 29.168 84.848 29.168 79.792C29.168 74.672 30.352 70.064 32.72 65.968C35.088 61.808 38.288 58.512 42.32 56.08C46.352 53.648 50.864 52.432 55.856 52.432C59.696 52.432 63.088 53.168 66.032 54.64C69.04 56.048 71.408 58.064 73.136 60.688L70.928 63.568V33.328H85.328V106H71.888V96.4L73.232 99.376C71.44 101.936 69.008 103.888 65.936 105.232C62.864 106.512 59.536 107.152 55.952 107.152ZM57.68 94.192C60.304 94.192 62.608 93.584 64.592 92.368C66.576 91.152 68.112 89.456 69.2 87.28C70.352 85.104 70.928 82.608 70.928 79.792C70.928 76.976 70.352 74.48 69.2 72.304C68.112 70.128 66.576 68.432 64.592 67.216C62.608 66 60.304 65.392 57.68 65.392C55.056 65.392 52.688 66.032 50.576 67.312C48.528 68.528 46.928 70.224 45.776 72.4C44.624 74.512 44.048 76.976 44.048 79.792C44.048 82.608 44.624 85.104 45.776 87.28C46.928 89.456 48.528 91.152 50.576 92.368C52.688 93.584 55.056 94.192 57.68 94.192ZM116.322 107.152C110.754 107.152 105.922 105.936 101.826 103.504C97.7298 101.008 94.5618 97.68 92.3218 93.52C90.0818 89.36 88.9618 84.752 88.9618 79.696C88.9618 74.448 90.1138 69.776 92.4178 65.68C94.7858 61.584 97.9538 58.352 101.922 55.984C105.89 53.616 110.37 52.432 115.362 52.432C119.522 52.432 123.202 53.104 126.402 54.448C129.602 55.728 132.29 57.552 134.466 59.92C136.706 62.288 138.402 65.04 139.554 68.176C140.706 71.248 141.282 74.608 141.282 78.256C141.282 79.28 141.218 80.304 141.09 81.328C141.026 82.288 140.866 83.12 140.61 83.824H101.346V73.264H132.45L125.634 78.256C126.274 75.504 126.242 73.072 125.538 70.96C124.834 68.784 123.586 67.088 121.794 65.872C120.066 64.592 117.922 63.952 115.362 63.952C112.866 63.952 110.722 64.56 108.93 65.776C107.138 66.992 105.794 68.784 104.898 71.152C104.002 73.52 103.65 76.4 103.842 79.792C103.586 82.736 103.938 85.328 104.898 87.568C105.858 89.808 107.33 91.568 109.314 92.848C111.298 94.064 113.698 94.672 116.514 94.672C119.074 94.672 121.25 94.16 123.042 93.136C124.898 92.112 126.338 90.704 127.362 88.912L138.882 94.384C137.858 96.944 136.226 99.184 133.986 101.104C131.81 103.024 129.218 104.528 126.21 105.616C123.202 106.64 119.906 107.152 116.322 107.152ZM165.505 107.152C159.745 107.152 154.721 105.808 150.433 103.12C146.209 100.368 143.329 96.688 141.793 92.08L152.353 87.088C153.697 89.904 155.521 92.112 157.825 93.712C160.129 95.312 162.689 96.112 165.505 96.112C167.553 96.112 169.121 95.696 170.209 94.864C171.297 94.032 171.841 92.88 171.841 91.408C171.841 90.64 171.649 90 171.265 89.488C170.881 88.912 170.305 88.4 169.537 87.952C168.769 87.504 167.809 87.12 166.657 86.8L157.729 84.304C153.441 83.088 150.145 81.136 147.841 78.448C145.537 75.696 144.385 72.464 144.385 68.752C144.385 65.488 145.217 62.64 146.881 60.208C148.545 57.776 150.881 55.888 153.889 54.544C156.897 53.136 160.353 52.432 164.257 52.432C169.377 52.432 173.857 53.648 177.697 56.08C181.601 58.448 184.353 61.808 185.953 66.16L175.297 71.152C174.529 68.976 173.121 67.248 171.073 65.968C169.089 64.624 166.817 63.952 164.257 63.952C162.401 63.952 160.929 64.336 159.841 65.104C158.817 65.872 158.305 66.928 158.305 68.272C158.305 68.976 158.497 69.616 158.881 70.192C159.265 70.768 159.873 71.28 160.705 71.728C161.601 72.176 162.689 72.592 163.969 72.976L172.321 75.472C176.673 76.752 180.001 78.704 182.305 81.328C184.609 83.888 185.761 87.056 185.761 90.832C185.761 94.096 184.897 96.944 183.169 99.376C181.505 101.808 179.169 103.728 176.161 105.136C173.153 106.48 169.601 107.152 165.505 107.152ZM210.112 107.152C204.352 107.152 199.328 105.808 195.04 103.12C190.816 100.368 187.936 96.688 186.4 92.08L196.96 87.088C198.304 89.904 200.128 92.112 202.432 93.712C204.736 95.312 207.296 96.112 210.112 96.112C212.16 96.112 213.728 95.696 214.816 94.864C215.904 94.032 216.448 92.88 216.448 91.408C216.448 90.64 216.256 90 215.872 89.488C215.488 88.912 214.912 88.4 214.144 87.952C213.376 87.504 212.416 87.12 211.264 86.8L202.336 84.304C198.048 83.088 194.752 81.136 192.448 78.448C190.144 75.696 188.992 72.464 188.992 68.752C188.992 65.488 189.824 62.64 191.488 60.208C193.152 57.776 195.488 55.888 198.496 54.544C201.504 53.136 204.96 52.432 208.864 52.432C213.984 52.432 218.464 53.648 222.304 56.08C226.208 58.448 228.96 61.808 230.56 66.16L219.904 71.152C219.136 68.976 217.728 67.248 215.68 65.968C213.696 64.624 211.424 63.952 208.864 63.952C207.008 63.952 205.536 64.336 204.448 65.104C203.424 65.872 202.912 66.928 202.912 68.272C202.912 68.976 203.104 69.616 203.488 70.192C203.872 70.768 204.48 71.28 205.312 71.728C206.208 72.176 207.296 72.592 208.576 72.976L216.928 75.472C221.28 76.752 224.608 78.704 226.912 81.328C229.216 83.888 230.368 87.056 230.368 90.832C230.368 94.096 229.504 96.944 227.776 99.376C226.112 101.808 223.776 103.728 220.768 105.136C217.76 106.48 214.208 107.152 210.112 107.152ZM259.422 107.152C253.854 107.152 249.022 105.936 244.926 103.504C240.83 101.008 237.662 97.68 235.422 93.52C233.182 89.36 232.062 84.752 232.062 79.696C232.062 74.448 233.214 69.776 235.518 65.68C237.886 61.584 241.054 58.352 245.022 55.984C248.99 53.616 253.47 52.432 258.462 52.432C262.622 52.432 266.302 53.104 269.502 54.448C272.702 55.728 275.39 57.552 277.566 59.92C279.806 62.288 281.502 65.04 282.654 68.176C283.806 71.248 284.382 74.608 284.382 78.256C284.382 79.28 284.318 80.304 284.19 81.328C284.126 82.288 283.966 83.12 283.71 83.824H244.446V73.264H275.55L268.734 78.256C269.374 75.504 269.342 73.072 268.638 70.96C267.934 68.784 266.686 67.088 264.894 65.872C263.166 64.592 261.022 63.952 258.462 63.952C255.966 63.952 253.822 64.56 252.03 65.776C250.238 66.992 248.894 68.784 247.998 71.152C247.102 73.52 246.75 76.4 246.942 79.792C246.686 82.736 247.038 85.328 247.998 87.568C248.958 89.808 250.43 91.568 252.414 92.848C254.398 94.064 256.798 94.672 259.614 94.672C262.174 94.672 264.35 94.16 266.142 93.136C267.998 92.112 269.438 90.704 270.462 88.912L281.982 94.384C280.958 96.944 279.326 99.184 277.086 101.104C274.91 103.024 272.318 104.528 269.31 105.616C266.302 106.64 263.006 107.152 259.422 107.152ZM288.061 106V53.584H301.501V66.352L300.061 64.24C300.829 60.208 302.685 57.232 305.629 55.312C308.573 53.392 312.093 52.432 316.189 52.432C320.541 52.432 324.349 53.552 327.613 55.792C330.941 57.968 333.021 60.912 333.853 64.624L329.725 65.008C331.453 60.72 333.917 57.552 337.117 55.504C340.317 53.456 344.061 52.432 348.349 52.432C352.125 52.432 355.453 53.264 358.333 54.928C361.277 56.592 363.581 58.928 365.245 61.936C366.909 64.88 367.741 68.336 367.741 72.304V106H353.341V75.376C353.341 73.328 352.957 71.568 352.189 70.096C351.485 68.624 350.461 67.472 349.117 66.64C347.773 65.808 346.141 65.392 344.221 65.392C342.365 65.392 340.733 65.808 339.325 66.64C337.981 67.472 336.925 68.624 336.157 70.096C335.453 71.568 335.101 73.328 335.101 75.376V106H320.701V75.376C320.701 73.328 320.317 71.568 319.549 70.096C318.845 68.624 317.821 67.472 316.477 66.64C315.133 65.808 313.501 65.392 311.581 65.392C309.725 65.392 308.093 65.808 306.685 66.64C305.341 67.472 304.285 68.624 303.517 70.096C302.813 71.568 302.461 73.328 302.461 75.376V106H288.061ZM401.794 107.152C398.21 107.152 394.882 106.512 391.81 105.232C388.802 103.888 386.37 101.936 384.514 99.376L385.858 96.4V106H372.418V33.328H386.818V63.568L384.61 60.688C386.338 58.064 388.674 56.048 391.618 54.64C394.626 53.168 398.05 52.432 401.89 52.432C406.882 52.432 411.394 53.648 415.426 56.08C419.458 58.512 422.658 61.808 425.026 65.968C427.394 70.064 428.578 74.672 428.578 79.792C428.578 84.848 427.394 89.456 425.026 93.616C422.722 97.776 419.554 101.072 415.522 103.504C411.49 105.936 406.914 107.152 401.794 107.152ZM400.066 94.192C402.754 94.192 405.122 93.584 407.17 92.368C409.218 91.152 410.818 89.456 411.97 87.28C413.122 85.104 413.698 82.608 413.698 79.792C413.698 76.976 413.122 74.512 411.97 72.4C410.818 70.224 409.218 68.528 407.17 67.312C405.122 66.032 402.754 65.392 400.066 65.392C397.506 65.392 395.202 66 393.154 67.216C391.17 68.432 389.602 70.128 388.45 72.304C387.362 74.48 386.818 76.976 386.818 79.792C386.818 82.608 387.362 85.104 388.45 87.28C389.602 89.456 391.17 91.152 393.154 92.368C395.202 93.584 397.506 94.192 400.066 94.192ZM432.211 106V33.328H446.611V106H432.211ZM452.349 106V53.584H466.749V106H452.349ZM452.349 48.88V34.48H466.749V48.88H452.349Z" fill="#1A1A1A"/>
</svg>
